<svg width="761" height="508" xmlns="http://www.w3.org/2000/svg" xmlns:xlink="http://www.w3.org/1999/xlink" overflow="hidden"><defs><clipPath id="clip0"><rect x="473" y="20" width="761" height="508"/></clipPath></defs><g clip-path="url(#clip0)" transform="translate(-473 -20)"><path d="M173.392 0C77.6434 0 0 77.6255 0 173.392 0 250 49.6822 314.994 118.577 337.922 127.242 339.527 130.423 334.16 130.423 329.58 130.423 325.449 130.262 311.787 130.188 297.299 81.9506 307.788 71.7718 276.84 71.7718 276.84 63.8842 256.801 52.5195 251.469 52.5195 251.469 36.7873 240.708 53.7053 240.929 53.7053 240.929 71.1166 242.152 80.2845 258.8 80.2845 258.8 95.7497 285.305 120.848 277.642 130.742 273.211 132.302 262.007 136.792 254.355 141.751 250.025 103.238 245.643 62.7528 230.773 62.7528 164.333 62.7528 145.406 69.5262 129.938 80.6182 117.795 78.8179 113.425 72.8828 95.7896 82.3006 71.9069 82.3006 71.9069 96.8615 67.2489 129.993 89.6828 143.824 85.8411 158.657 83.9138 173.393 83.8454 188.128 83.9105 202.973 85.8403 216.83 89.6828 249.925 67.2489 264.465 71.9069 264.465 71.9069 273.903 95.7896 267.968 113.425 266.168 117.795 277.286 129.938 284.01 145.406 284.01 164.333 284.01 230.934 243.447 245.595 204.836 249.887 211.056 255.268 216.597 265.82 216.597 281.997 216.597 305.198 216.4 323.87 216.4 329.58 216.4 334.197 219.518 339.604 228.307 337.902 297.167 314.948 346.785 249.976 346.785 173.393 346.785 77.6247 269.154 0 173.393 0" fill="#FFFFFF" fill-rule="evenodd" transform="matrix(1 0 0 1.00131 680.107 104.667)"/><path d="M65.674 248.952C65.2914 249.816 63.9362 250.074 62.7024 249.48 61.4408 248.915 60.7384 247.74 61.1453 246.876 61.5197 245.991 62.8741 245.744 64.1324 246.336 65.3899 246.902 66.107 248.088 65.674 248.952M72.698 256.786C71.8711 257.553 70.2514 257.196 69.1575 255.985 68.0205 254.776 67.8105 253.157 68.6496 252.382 69.5026 251.615 71.0702 251.974 72.204 253.183 73.341 254.406 73.5624 256.011 72.698 256.786M79.5341 266.771C78.4719 267.512 76.7318 266.82 75.6574 265.278 74.5953 263.734 74.5953 261.884 75.6818 261.144 76.7562 260.403 78.4703 261.07 79.5585 262.599 80.6182 264.167 80.6182 266.016 79.5341 266.771M88.899 276.42C87.9492 277.468 85.925 277.187 84.4428 275.757 82.9273 274.358 82.5057 272.374 83.4555 271.326 84.42 270.276 86.4556 270.57 87.9484 271.989 89.4541 273.385 89.9099 275.383 88.899 276.42M101.821 282.021C101.397 283.381 99.4522 283.994 97.4874 283.417 95.5259 282.823 94.2432 281.236 94.6387 279.863 95.0473 278.493 97.0056 277.853 98.9834 278.47 100.942 279.062 102.228 280.641 101.821 282.022M116.011 283.06C116.06 284.49 114.395 285.676 112.333 285.701 110.26 285.75 108.581 284.59 108.557 283.183 108.557 281.739 110.189 280.568 112.258 280.53 114.32 280.489 116.011 281.641 116.011 283.06M129.215 280.814C129.462 282.205 128.03 283.639 125.983 284.02 123.97 284.391 122.106 283.526 121.85 282.146 121.6 280.716 123.057 279.283 125.069 278.913 127.12 278.557 128.954 279.396 129.215 280.814" fill="#FFFFFF" transform="matrix(1 0 0 1.00131 680.107 104.667)"/></g></svg>